# xmcd
#
# Track frame offsets:
#	187
#	13832
#	25337
#	37250
#	45145
#	54467
#	70315
#	81302
#	92265
#	104602
#
# Disc length: 1572
#
# Revision: 3
# Processed by: cddbd v1.5.1PL0 Copyright (c) Steve Scherf et al.
# Submitted via: DiscPlay 3.4.1
# Normalized: r1:TDELIM( - ),TSWAP
#
DISCID=7c06220a
DTITLE=Various Country Artists - Country Gold Volume 1
DYEAR=1900
DGENRE=
TTITLE0=George Jones - Just Someone I Used to Know
TTITLE1=Willie Nelson - Night Life
TTITLE2=Kitty Wells - It Wasn't God Who Made Honky Tonk Angels
TTITLE3=Roger Miller - Dang Me
TTITLE4=Willie Nelson - Right From Wrong
TTITLE5=Ernest Tubb and Johnny Cash - Soldier's Last Letter
TTITLE6=George Jones - Tender Years
TTITLE7=Roger Miller - King of the Road
TTITLE8=Kitty Wells - Password
TTITLE9=Moe Bandy - Bandy, The Rodeo Clown
EXTD=
EXTT0=
EXTT1=
EXTT2=
EXTT3=
EXTT4=
EXTT5=
EXTT6=
EXTT7=
EXTT8=
EXTT9=
PLAYORDER=
